# 3ds Max Wavefront OBJ Exporter v0.97b - (c)2007 guruware
# File Created: 05.12.2018 22:37:12

mtllib Stick1.mtl

#
# object Box003
#

v  58.1210 1.0094 -160.8050
v  58.0850 0.9737 -160.8089
v  58.2189 0.9278 -160.8404
v  58.2207 0.9737 -160.8242
v  58.0643 0.9737 -160.9950
v  58.1987 0.9278 -161.0222
v  58.3331 0.9737 -161.0495
v  58.3529 0.9737 -160.8719
v  58.3194 1.0094 -160.8519
v  57.9331 0.9737 -162.1363
v  57.8623 0.9737 -162.6600
v  58.0000 0.9278 -162.6600
v  58.0703 0.9278 -162.1402
v  57.8028 0.9737 -163.0661
v  57.9405 0.9278 -163.0661
v  58.1100 0.9589 -163.1050
v  58.1376 0.9737 -162.6600
v  58.2075 0.9737 -162.1440
v  57.7150 0.9737 -163.6633
v  57.6327 0.9737 -164.2193
v  57.7704 0.9278 -164.2193
v  57.8527 0.9278 -163.6633
v  57.5573 0.9737 -164.7277
v  57.6950 0.9278 -164.7277
v  57.8326 0.9737 -164.7277
v  57.9080 0.9737 -164.2193
v  58.0275 0.9589 -163.6300
v  58.1210 1.2133 -160.8050
v  58.2207 1.2490 -160.8242
v  58.2189 1.2949 -160.8404
v  58.0850 1.2490 -160.8089
v  58.3194 1.2133 -160.8519
v  58.3529 1.2490 -160.8719
v  58.3331 1.2490 -161.0495
v  58.1987 1.2949 -161.0222
v  58.0643 1.2490 -160.9950
v  57.9331 1.2490 -162.1363
v  58.0703 1.2949 -162.1402
v  58.0000 1.2949 -162.6600
v  57.8623 1.2490 -162.6600
v  58.2075 1.2490 -162.1440
v  58.1376 1.2490 -162.6600
v  58.1100 1.2638 -163.1050
v  57.9405 1.2949 -163.0661
v  57.8028 1.2490 -163.0661
v  57.7150 1.2490 -163.6633
v  57.8527 1.2949 -163.6633
v  57.7704 1.2949 -164.2193
v  57.6327 1.2490 -164.2193
v  58.0275 1.2638 -163.6300
v  57.9080 1.2490 -164.2193
v  57.8326 1.2490 -164.7277
v  57.6950 1.2949 -164.7277
v  57.5573 1.2490 -164.7277
v  58.2213 1.1114 -160.8189
v  58.0868 1.1114 -160.7924
v  58.3546 1.1114 -160.8561
v  58.3975 1.1114 -160.8824
v  58.3780 1.1114 -161.0586
v  58.1835 1.1114 -162.6600
v  58.2532 1.1114 -162.1453
v  58.1621 1.1114 -163.0395
v  57.9539 1.1114 -164.2193
v  58.0499 1.1114 -163.7268
v  57.8785 1.1114 -164.7277
v  57.7687 1.0094 -164.9180
v  57.6663 0.9737 -164.9213
v  57.6657 1.1114 -164.9256
v  57.8039 1.1114 -164.9213
v  57.5648 1.0094 -164.9180
v  57.5286 1.1114 -164.9213
v  57.5648 1.2133 -164.9180
v  57.6663 1.2490 -164.9213
v  57.7687 1.2133 -164.9180
v  57.5305 0.9737 -164.9086
v  57.4846 1.1114 -164.9086
v  57.5114 1.1114 -164.7277
v  57.5305 1.2490 -164.9086
v  57.7628 0.9737 -163.3397
v  57.7169 1.1114 -163.3397
v  57.6692 1.1114 -163.6633
v  57.7570 1.1114 -163.0661
v  57.7628 1.2490 -163.3397
v  58.0070 0.9737 -161.5094
v  57.9617 1.1114 -161.5042
v  57.8874 1.1114 -162.1350
v  58.0194 1.1114 -160.9859
v  58.0070 1.2490 -161.5094
v  57.9004 0.9278 -163.3397
v  58.0640 0.9315 -163.3582
v  58.0640 1.2913 -163.3582
v  57.9004 1.2949 -163.3397
v  59.0181 1.0418 -164.1532
v  58.9687 1.0174 -164.2153
v  58.9955 1.1114 -164.2484
v  59.0646 1.1114 -164.1678
v  58.8777 1.0418 -164.2260
v  58.8728 1.1114 -164.2628
v  58.8777 1.1810 -164.2260
v  58.9687 1.2054 -164.2153
v  59.0181 1.1810 -164.1532
v  57.8164 1.1114 -162.6600
v  58.1876 0.9423 -163.4136
v  58.2242 0.9846 -163.2785
v  58.1509 0.9846 -163.5488
v  58.2411 0.9954 -163.6025
v  58.2916 0.9568 -163.4879
v  58.3421 0.9954 -163.3733
v  58.1387 1.1114 -163.5938
v  58.1509 1.2382 -163.5488
v  58.2411 1.2273 -163.6025
v  58.2243 1.1114 -163.6407
v  58.1876 1.2805 -163.4136
v  58.2242 1.2382 -163.2785
v  58.3421 1.2273 -163.3733
v  58.2916 1.2660 -163.4879
v  58.2364 1.1114 -163.2334
v  58.3589 1.1114 -163.3351
v  58.5868 1.0146 -163.5860
v  58.5105 0.9824 -163.6624
v  58.6417 0.9861 -163.8109
v  58.7255 1.0174 -163.7456
v  58.4341 1.0146 -163.7389
v  58.5578 1.0174 -163.8763
v  58.6845 1.0174 -164.0316
v  58.7733 0.9861 -163.9737
v  58.8621 1.0174 -163.9157
v  58.4087 1.1114 -163.7643
v  58.5299 1.1114 -163.8981
v  58.4341 1.2081 -163.7389
v  58.5578 1.2054 -163.8763
v  58.6845 1.2054 -164.0316
v  58.6549 1.1114 -164.0510
v  58.5105 1.2404 -163.6624
v  58.6417 1.2367 -163.8109
v  58.5868 1.2081 -163.5860
v  58.7255 1.2054 -163.7456
v  58.8621 1.2054 -163.9157
v  58.7733 1.2367 -163.9737
v  58.6123 1.1114 -163.5605
v  58.7535 1.1114 -163.7238
v  58.8917 1.1114 -163.8964
v  58.1428 0.9278 -161.5249
v  58.2787 0.9737 -161.5404
v  58.2787 1.2490 -161.5404
v  58.1428 1.2949 -161.5249
v  58.3239 1.1114 -161.5455
v  58.0403 1.1114 -160.7984
v  57.6682 0.9278 -164.9086
v  57.8058 0.9737 -164.9086
v  57.8058 1.2490 -164.9086
v  57.6682 1.2949 -164.9086
v  57.8517 1.1114 -164.9086
v  57.5868 1.1114 -164.2193
v  58.7953 1.0174 -164.1676
v  58.8885 0.9861 -164.1161
v  58.9817 1.0174 -164.0646
v  58.7953 1.2054 -164.1676
v  58.7642 1.1114 -164.1848
v  58.9817 1.2054 -164.0646
v  58.8885 1.2367 -164.1161
v  59.0127 1.1114 -164.0474
v  58.3320 1.0064 -163.6568
v  58.3965 0.9714 -163.5628
v  58.4610 1.0064 -163.4688
v  58.3320 1.2164 -163.6568
v  58.3105 1.1114 -163.6881
v  58.4610 1.2164 -163.4688
v  58.3965 1.2514 -163.5628
v  58.4825 1.1114 -163.4375
# 170 vertices

vn 0.0983 -0.1314 0.9864
vn -0.4876 -0.5973 0.6368
vn 0.1063 -0.8493 0.5172
vn 0.2212 -0.2167 0.9509
vn -0.7043 -0.7055 0.0784
vn -0.0000 -1.0000 0.0000
vn 0.7044 -0.7055 -0.0782
vn 0.6812 -0.5868 0.4377
vn 0.3466 -0.1231 0.9299
vn -0.7019 -0.7067 0.0888
vn -0.7015 -0.7058 0.0988
vn 0.0011 -1.0000 -0.0003
vn 0.0017 -1.0000 -0.0004
vn -0.7019 -0.7049 0.1028
vn -0.0729 -0.9973 0.0107
vn 0.5414 -0.8281 0.1452
vn 0.7024 -0.7094 -0.0578
vn 0.7043 -0.7043 -0.0892
vn -0.7017 -0.7049 0.1037
vn -0.7017 -0.7048 0.1040
vn 0.0000 -1.0000 -0.0000
vn -0.0701 -0.9975 0.0104
vn 0.7017 -0.7048 -0.1040
vn 0.6969 -0.7050 -0.1318
vn 0.4592 -0.8391 -0.2916
vn 0.0983 0.1314 0.9864
vn 0.2212 0.2167 0.9509
vn 0.1063 0.8493 0.5172
vn -0.4876 0.5973 0.6368
vn 0.3466 0.1231 0.9299
vn 0.6812 0.5868 0.4377
vn 0.7044 0.7055 -0.0782
vn -0.0000 1.0000 0.0000
vn -0.7043 0.7055 0.0784
vn -0.7019 0.7067 0.0888
vn 0.0017 1.0000 -0.0004
vn 0.0011 1.0000 -0.0003
vn -0.7015 0.7058 0.0988
vn 0.7043 0.7043 -0.0892
vn 0.7024 0.7094 -0.0578
vn 0.5414 0.8281 0.1452
vn -0.0729 0.9973 0.0107
vn -0.7019 0.7049 0.1028
vn -0.7017 0.7049 0.1037
vn -0.0701 0.9975 0.0104
vn 0.0000 1.0000 -0.0000
vn -0.7017 0.7048 0.1040
vn 0.4592 0.8391 -0.2916
vn 0.6969 0.7050 -0.1318
vn 0.7017 0.7048 -0.1040
vn 0.2309 0.0000 0.9730
vn 0.0007 0.0000 1.0000
vn 0.4248 0.0000 0.9053
vn 0.9233 0.0000 0.3841
vn 0.9939 0.0000 -0.1102
vn 0.9954 0.0000 -0.0960
vn 0.9921 -0.0000 -0.1255
vn 0.9943 -0.0000 0.1068
vn 0.9855 0.0000 -0.1698
vn 0.9463 -0.0000 -0.3232
vn 0.9892 0.0000 -0.1466
vn 0.0996 -0.1003 -0.9900
vn -0.0030 -0.1751 -0.9846
vn -0.0002 0.0000 -1.0000
vn 0.1685 0.0000 -0.9857
vn -0.1037 -0.1029 -0.9893
vn -0.1818 0.0000 -0.9833
vn -0.1037 0.1029 -0.9893
vn -0.0030 0.1751 -0.9846
vn 0.0996 0.1003 -0.9900
vn -0.6196 -0.5905 -0.5171
vn -0.8732 -0.0000 -0.4874
vn -0.9892 0.0000 0.1466
vn -0.6196 0.5905 -0.5171
vn -0.7018 -0.7049 0.1031
vn -0.9894 0.0000 0.1454
vn -0.9893 0.0000 0.1462
vn -0.9894 0.0000 0.1450
vn -0.7018 0.7049 0.1031
vn -0.7035 -0.7061 0.0806
vn -0.9935 0.0000 0.1139
vn -0.9921 -0.0000 0.1256
vn -0.9939 0.0000 0.1106
vn -0.7035 0.7061 0.0806
vn -0.1493 -0.9885 0.0219
vn 0.0555 -0.9984 0.0042
vn 0.0555 0.9984 0.0042
vn -0.1493 0.9885 0.0219
vn 0.7282 -0.6822 -0.0656
vn 0.3348 -0.7520 -0.5679
vn 0.4841 -0.0000 -0.8750
vn 0.9849 -0.0000 -0.1734
vn -0.2090 -0.6125 -0.7624
vn -0.2392 -0.0000 -0.9710
vn -0.2090 0.6125 -0.7624
vn 0.3348 0.7520 -0.5679
vn 0.7282 0.6822 -0.0656
vn -0.9902 0.0000 0.1396
vn 0.1090 -0.9939 -0.0135
vn 0.5949 -0.6773 0.4328
vn 0.1808 -0.7590 -0.6255
vn -0.2872 -0.7235 -0.6278
vn 0.1040 -0.9934 -0.0481
vn 0.4809 -0.7080 0.5172
vn 0.3233 0.0000 -0.9463
vn 0.1808 0.7590 -0.6255
vn -0.2872 0.7235 -0.6278
vn -0.4810 -0.0000 -0.8767
vn 0.1090 0.9939 -0.0135
vn 0.5949 0.6773 0.4328
vn 0.4809 0.7080 0.5172
vn 0.1040 0.9934 -0.0481
vn 0.8342 -0.0000 0.5514
vn 0.6383 -0.0000 0.7698
vn 0.5139 -0.7199 0.4665
vn 0.0407 -0.9989 -0.0240
vn 0.0086 -1.0000 -0.0046
vn 0.5282 -0.7291 0.4353
vn -0.4419 -0.7376 -0.5106
vn -0.5114 -0.7349 -0.4455
vn -0.5288 -0.7311 -0.4310
vn 0.0000 -1.0000 0.0000
vn 0.5319 -0.7313 0.4270
vn -0.6792 -0.0000 -0.7339
vn -0.7577 0.0000 -0.6527
vn -0.4419 0.7376 -0.5106
vn -0.5114 0.7349 -0.4455
vn -0.5288 0.7311 -0.4310
vn -0.7743 -0.0000 -0.6328
vn 0.0407 0.9989 -0.0240
vn 0.0086 1.0000 -0.0046
vn 0.5139 0.7199 0.4665
vn 0.5282 0.7291 0.4353
vn 0.5319 0.7313 0.4270
vn 0.0000 1.0000 0.0000
vn 0.7229 -0.0000 0.6910
vn 0.7686 0.0000 0.6397
vn 0.7805 -0.0000 0.6252
vn 0.0007 -1.0000 -0.0001
vn 0.7045 -0.7052 -0.0806
vn 0.7045 0.7052 -0.0806
vn 0.0007 1.0000 -0.0001
vn 0.9935 -0.0000 -0.1137
vn -0.7511 0.0000 0.6602
vn -0.0192 -0.8346 -0.5505
vn 0.5490 -0.5791 -0.6026
vn 0.5490 0.5791 -0.6026
vn -0.0192 0.8346 -0.5505
vn 0.7884 0.0000 -0.6152
vn -0.9892 -0.0000 0.1466
vn -0.4292 -0.7072 -0.5618
vn 0.0596 -0.9929 -0.1028
vn 0.6305 -0.7268 0.2724
vn -0.4292 0.7072 -0.5618
vn -0.6911 -0.0000 -0.7227
vn 0.6305 0.7268 0.2724
vn 0.0596 0.9929 -0.1028
vn 0.8577 -0.0000 0.5142
vn -0.3374 -0.7299 -0.5945
vn 0.0827 -0.9955 -0.0463
vn 0.4902 -0.7130 0.5014
vn -0.3374 0.7299 -0.5945
vn -0.5487 0.0000 -0.8360
vn 0.4902 0.7130 0.5014
vn 0.0827 0.9955 -0.0463
vn 0.6628 -0.0000 0.7488
# 166 vertex normals

vt 1.0000 0.0000 0.0000
vt 1.0000 0.0052 0.0000
vt 0.5000 0.0052 0.0000
vt 0.5000 0.0000 0.0000
vt 1.0000 0.0105 0.0000
vt 0.5000 0.0495 0.0000
vt 0.0000 0.0105 0.0000
vt 0.0000 0.0052 0.0000
vt 0.0000 0.0000 0.0000
vt 1.0000 0.3333 0.0000
vt 1.0000 0.4491 0.0000
vt 0.5000 0.4491 0.0000
vt 0.5000 0.3219 0.0000
vt 1.0000 0.5649 0.0000
vt 0.5000 0.5487 0.0000
vt 0.0000 0.5649 0.0000
vt 0.0000 0.4491 0.0000
vt 0.0000 0.3333 0.0000
vt 1.0000 0.6667 0.0000
vt 1.0000 0.8292 0.0000
vt 0.5000 0.8292 0.0000
vt 0.5000 0.6946 0.0000
vt 1.0000 0.9918 0.0000
vt 0.5000 0.9522 0.0000
vt 0.0000 0.9918 0.0000
vt 0.0000 0.8292 0.0000
vt 0.0000 0.6667 0.0000
vt 0.5000 0.5000 0.0000
vt 0.0000 0.5000 0.0000
vt 1.0000 0.5000 0.0000
vt 1.0000 1.0000 0.0000
vt 0.5000 1.0000 0.0000
vt 0.0000 1.0000 0.0000
vt 0.0052 0.0000 0.0000
vt 0.0052 0.5000 0.0000
vt 0.0105 0.0000 0.0000
vt 0.0495 0.5000 0.0000
vt 0.0105 1.0000 0.0000
vt 0.0052 1.0000 0.0000
vt 0.3333 0.0000 0.0000
vt 0.4491 0.0000 0.0000
vt 0.4491 0.5000 0.0000
vt 0.3219 0.5000 0.0000
vt 0.5649 0.0000 0.0000
vt 0.5360 0.5000 0.0000
vt 0.5649 1.0000 0.0000
vt 0.4491 1.0000 0.0000
vt 0.3333 1.0000 0.0000
vt 0.6667 0.0000 0.0000
vt 0.8292 0.0000 0.0000
vt 0.8292 0.5000 0.0000
vt 0.7073 0.5000 0.0000
vt 0.9918 0.0000 0.0000
vt 0.9522 0.5000 0.0000
vt 0.9918 1.0000 0.0000
vt 0.8292 1.0000 0.0000
vt 0.6667 1.0000 0.0000
vt 0.0041 0.0000 0.0000
vt 0.0041 0.5000 0.0000
vt 0.0082 0.0000 0.0000
vt 0.0478 0.5000 0.0000
vt 0.0082 1.0000 0.0000
vt 0.0041 1.0000 0.0000
vt 0.3842 0.0000 0.0000
vt 0.3842 0.5000 0.0000
vt 0.3054 0.5000 0.0000
vt 0.4351 0.0000 0.0000
vt 0.4513 0.5000 0.0000
vt 0.4351 1.0000 0.0000
vt 0.3842 1.0000 0.0000
vt 0.8281 0.0000 0.0000
vt 0.8281 0.5000 0.0000
vt 0.6781 0.5000 0.0000
vt 0.9895 0.0000 0.0000
vt 0.9505 0.5000 0.0000
vt 0.9895 1.0000 0.0000
vt 0.8281 1.0000 0.0000
vt 1.0000 0.6158 0.0000
vt 0.5000 0.6158 0.0000
vt 0.0000 0.6158 0.0000
vt 0.5875 0.2222 0.0000
vt 0.6158 0.1250 0.0000
vt 0.6158 0.5000 0.0000
vt 0.5776 0.5000 0.0000
vt 0.6441 0.2222 0.0000
vt 0.6539 0.5000 0.0000
vt 0.6441 0.7778 0.0000
vt 0.6158 0.8750 0.0000
vt 0.5875 0.7778 0.0000
vt 0.5509 0.0000 0.0000
vt 0.5509 0.5000 0.0000
vt 0.5509 1.0000 0.0000
vt 0.6158 0.0000 0.0000
vt 0.5776 0.1250 0.0000
vt 0.6539 0.1250 0.0000
vt 0.6540 0.1250 0.0000
vt 0.6667 0.5000 0.0000
vt 0.6539 0.8750 0.0000
vt 0.6158 1.0000 0.0000
vt 0.5776 0.8750 0.0000
vt 0.5649 0.5000 0.0000
vt 1.0000 0.1719 0.0000
vt 0.5000 0.1719 0.0000
vt 0.0000 0.1719 0.0000
vt 0.1719 0.0000 0.0000
vt 0.1719 0.5000 0.0000
vt 0.1719 1.0000 0.0000
vt 0.9948 0.0000 0.0000
vt 0.9948 0.5000 0.0000
vt 0.9948 1.0000 0.0000
vt 1.0000 0.9959 0.0000
vt 0.5000 0.9959 0.0000
vt 0.0000 0.9959 0.0000
vt 0.9959 0.0000 0.0000
vt 0.9959 0.5000 0.0000
vt 0.9959 1.0000 0.0000
vt 0.1708 0.0000 0.0000
vt 0.1708 0.5000 0.0000
vt 0.1708 1.0000 0.0000
# 119 texture coords

o Box003
g Box003
usemtl wire_135059008
s 1
f 1/1/1 2/2/2 3/3/3 4/4/4 
f 2/2/2 5/5/5 6/6/6 3/3/3 
f 7/7/7 8/8/8 3/3/3 6/6/6 
f 8/8/8 9/9/9 4/4/4 3/3/3 
f 10/10/10 11/11/11 12/12/12 13/13/13 
f 11/11/11 14/14/14 15/15/15 12/12/12 
f 16/16/16 17/17/17 12/12/12 15/15/15 
f 17/17/17 18/18/18 13/13/13 12/12/12 
f 19/19/19 20/20/20 21/21/21 22/22/22 
f 20/20/20 23/23/20 24/24/21 21/21/21 
f 25/25/23 26/26/24 21/21/21 24/24/21 
f 26/26/24 27/27/25 22/22/22 21/21/21 
f 28/9/26 29/4/27 30/3/28 31/8/29 
f 29/4/27 32/1/30 33/2/31 30/3/28 
f 34/5/32 35/6/33 30/3/28 33/2/31 
f 35/6/33 36/7/34 31/8/29 30/3/28 
f 37/18/35 38/13/36 39/12/37 40/17/38 
f 38/13/36 41/10/39 42/11/40 39/12/37 
f 43/14/41 44/15/42 39/12/37 42/11/40 
f 44/15/42 45/16/43 40/17/38 39/12/37 
f 46/27/44 47/22/45 48/21/46 49/26/47 
f 47/22/45 50/19/48 51/20/49 48/21/46 
f 52/23/50 53/24/46 48/21/46 51/20/49 
f 53/24/46 54/25/47 49/26/47 48/21/46 
f 1/9/1 4/4/4 55/28/51 56/29/52 
f 4/4/4 9/1/9 57/30/53 55/28/51 
f 32/31/30 29/32/27 55/28/51 57/30/53 
f 29/32/27 28/33/26 56/29/52 55/28/51 
f 9/9/9 8/34/8 58/35/54 57/29/53 
f 8/34/8 7/36/7 59/37/55 58/35/54 
f 34/38/32 33/39/31 58/35/54 59/37/55 
f 33/39/31 32/33/30 57/29/53 58/35/54 
f 18/40/18 17/41/17 60/42/56 61/43/57 
f 17/41/17 16/44/16 62/45/58 60/42/56 
f 43/46/41 42/47/40 60/42/56 62/45/58 
f 42/47/40 41/48/39 61/43/57 60/42/56 
f 27/49/25 26/50/24 63/51/59 64/52/60 
f 26/50/24 25/53/23 65/54/61 63/51/59 
f 52/55/50 51/56/49 63/51/59 65/54/61 
f 51/56/49 50/57/48 64/52/60 63/51/59 
f 66/9/62 67/4/63 68/28/64 69/29/65 
f 67/4/63 70/1/66 71/30/67 68/28/64 
f 72/31/68 73/32/69 68/28/64 71/30/67 
f 73/32/69 74/33/70 69/29/65 68/28/64 
f 70/9/66 75/58/71 76/59/72 71/29/67 
f 75/58/71 23/60/20 77/61/73 76/59/72 
f 54/62/47 78/63/74 76/59/72 77/61/73 
f 78/63/74 72/33/68 71/29/67 76/59/72 
f 19/40/19 79/64/75 80/65/76 81/66/77 
f 79/64/75 14/67/14 82/68/78 80/65/76 
f 45/69/43 83/70/79 80/65/76 82/68/78 
f 83/70/79 46/48/44 81/66/77 80/65/76 
f 10/49/10 84/71/80 85/72/81 86/73/82 
f 84/71/80 5/74/5 87/75/83 85/72/81 
f 36/76/34 88/77/84 85/72/81 87/75/83 
f 88/77/84 37/57/35 86/73/82 85/72/81 
f 14/14/14 79/78/75 89/79/85 15/15/15 
f 79/78/75 19/19/19 22/22/22 89/79/85 
f 27/27/25 90/80/86 89/79/85 22/22/22 
f 90/80/86 16/16/16 15/15/15 89/79/85 
f 43/14/41 91/78/87 92/79/88 44/15/42 
f 91/78/87 50/19/48 47/22/45 92/79/88 
f 46/27/44 83/80/79 92/79/88 47/22/45 
f 83/80/79 45/16/43 44/15/42 92/79/88 
f 93/81/89 94/82/90 95/83/91 96/84/92 
f 94/82/90 97/85/93 98/86/94 95/83/91 
f 99/87/95 100/88/96 95/83/91 98/86/94 
f 100/88/96 101/89/97 96/84/92 95/83/91 
f 14/67/14 11/90/11 102/91/98 82/68/78 
f 11/90/11 10/49/10 86/73/82 102/91/98 
f 37/57/35 40/92/38 102/91/98 86/73/82 
f 40/92/38 45/69/43 82/68/78 102/91/98 
f 16/44/16 90/93/86 103/93/99 104/94/100 
f 90/93/86 27/49/25 105/95/101 103/93/99 
f 106/96/102 107/93/103 103/93/99 105/95/101 
f 107/93/103 108/94/104 104/94/100 103/93/99 
f 27/49/25 64/52/60 109/97/105 105/95/101 
f 64/52/60 50/57/48 110/98/106 109/97/105 
f 111/98/107 112/97/108 109/97/105 110/98/106 
f 112/97/108 106/96/102 105/95/101 109/97/105 
f 50/57/48 91/99/87 113/99/109 110/98/106 
f 91/99/87 43/46/41 114/100/110 113/99/109 
f 115/100/111 116/99/112 113/99/109 114/100/110 
f 116/99/112 111/98/107 110/98/106 113/99/109 
f 43/46/41 62/45/58 117/101/113 114/100/110 
f 62/45/58 16/44/16 104/94/100 117/101/113 
f 108/94/104 118/101/114 117/101/113 104/94/100 
f 118/101/114 115/100/111 114/100/110 117/101/113 
f 119/94/115 120/93/116 121/93/117 122/94/118 
f 120/93/116 123/96/119 124/95/120 121/93/117 
f 125/96/121 126/93/122 121/93/117 124/95/120 
f 126/93/122 127/94/123 122/94/118 121/93/117 
f 123/96/119 128/97/124 129/97/125 124/95/120 
f 128/97/124 130/98/126 131/98/127 129/97/125 
f 132/98/128 133/97/129 129/97/125 131/98/127 
f 133/97/129 125/96/121 124/95/120 129/97/125 
f 130/98/126 134/99/130 135/99/131 131/98/127 
f 134/99/130 136/100/132 137/100/133 135/99/131 
f 138/100/134 139/99/135 135/99/131 137/100/133 
f 139/99/135 132/98/128 131/98/127 135/99/131 
f 136/100/132 140/101/136 141/101/137 137/100/133 
f 140/101/136 119/94/115 122/94/118 141/101/137 
f 127/94/123 142/101/138 141/101/137 122/94/118 
f 142/101/138 138/100/134 137/100/133 141/101/137 
f 5/5/5 84/102/80 143/103/139 6/6/6 
f 84/102/80 10/10/10 13/13/13 143/103/139 
f 18/18/18 144/104/140 143/103/139 13/13/13 
f 144/104/140 7/7/7 6/6/6 143/103/139 
f 34/5/32 145/102/141 146/103/142 35/6/33 
f 145/102/141 41/10/39 38/13/36 146/103/142 
f 37/18/35 88/104/84 146/103/142 38/13/36 
f 88/104/84 36/7/34 35/6/33 146/103/142 
f 7/36/7 144/105/140 147/106/143 59/37/55 
f 144/105/140 18/40/18 61/43/57 147/106/143 
f 41/48/39 145/107/141 147/106/143 61/43/57 
f 145/107/141 34/38/32 59/37/55 147/106/143 
f 5/74/5 2/108/2 148/109/144 87/75/83 
f 2/108/2 1/1/1 56/30/52 148/109/144 
f 28/31/26 31/110/29 148/109/144 56/30/52 
f 31/110/29 36/76/34 87/75/83 148/109/144 
f 23/23/20 75/111/71 149/112/145 24/24/21 
f 75/111/71 70/31/66 67/32/63 149/112/145 
f 66/33/62 150/113/146 149/112/145 67/32/63 
f 150/113/146 25/25/23 24/24/21 149/112/145 
f 52/23/50 151/111/147 152/112/148 53/24/46 
f 151/111/147 74/31/70 73/32/69 152/112/148 
f 72/33/68 78/113/74 152/112/148 73/32/69 
f 78/113/74 54/25/47 53/24/46 152/112/148 
f 25/53/23 150/114/146 153/115/149 65/54/61 
f 150/114/146 66/1/62 69/30/65 153/115/149 
f 74/31/70 151/116/147 153/115/149 69/30/65 
f 151/116/147 52/55/50 65/54/61 153/115/149 
f 23/60/20 20/117/20 154/118/150 77/61/73 
f 20/117/20 19/40/19 81/66/77 154/118/150 
f 46/48/44 49/119/47 154/118/150 81/66/77 
f 49/119/47 54/62/47 77/61/73 154/118/150 
f 125/96/121 155/95/151 156/93/152 126/93/122 
f 155/95/151 97/85/93 94/82/90 156/93/152 
f 93/81/89 157/94/153 156/93/152 94/82/90 
f 157/94/153 127/94/123 126/93/122 156/93/152 
f 132/98/128 158/98/154 159/97/155 133/97/129 
f 158/98/154 99/87/95 98/86/94 159/97/155 
f 97/85/93 155/95/151 159/97/155 98/86/94 
f 155/95/151 125/96/121 133/97/129 159/97/155 
f 138/100/134 160/100/156 161/99/157 139/99/135 
f 160/100/156 101/89/97 100/88/96 161/99/157 
f 99/87/95 158/98/154 161/99/157 100/88/96 
f 158/98/154 132/98/128 139/99/135 161/99/157 
f 127/94/123 157/94/153 162/101/158 142/101/138 
f 157/94/153 93/81/89 96/84/92 162/101/158 
f 101/89/97 160/100/156 162/101/158 96/84/92 
f 160/100/156 138/100/134 142/101/138 162/101/158 
f 106/96/102 163/95/159 164/93/160 107/93/103 
f 163/95/159 123/96/119 120/93/116 164/93/160 
f 119/94/115 165/94/161 164/93/160 120/93/116 
f 165/94/161 108/94/104 107/93/103 164/93/160 
f 111/98/107 166/98/162 167/97/163 112/97/108 
f 166/98/162 130/98/126 128/97/124 167/97/163 
f 123/96/119 163/95/159 167/97/163 128/97/124 
f 163/95/159 106/96/102 112/97/108 167/97/163 
f 115/100/111 168/100/164 169/99/165 116/99/112 
f 168/100/164 136/100/132 134/99/130 169/99/165 
f 130/98/126 166/98/162 169/99/165 134/99/130 
f 166/98/162 111/98/107 116/99/112 169/99/165 
f 108/94/104 165/94/161 170/101/166 118/101/114 
f 165/94/161 119/94/115 140/101/136 170/101/166 
f 136/100/132 168/100/164 170/101/166 140/101/136 
f 168/100/164 115/100/111 118/101/114 170/101/166 
# 168 polygons

